<svg width="29" height="30" viewBox="0 0 29 30" fill="none" xmlns="http://www.w3.org/2000/svg">
<path d="M1.19375 0L0 3.89062L0.896875 4.16562L2.08 0.271875L1.19375 0ZM3.15562 0.60125L1.97188 4.49563L10.8162 7.20812L12.0162 3.31812L3.15562 0.60125ZM13.0787 3.68062L11.9037 7.50187C12.935 7.73937 14.2163 7.84562 15.4225 7.80187C16.5163 7.76437 17.5475 7.58938 18.2537 7.35813C17.7975 6.77063 17.035 6.04563 16.16 5.40188C15.185 4.68938 14.0662 4.06437 13.0787 3.68062ZM2.9325 8.13313C3.4175 9.43938 4.25687 10.9956 5.26 12.3706C6.635 14.2519 8.34125 15.8081 9.635 16.1644L10.635 16.4456L7.71 18.1769C9.99125 18.4331 13.9975 18.3831 15.9287 17.9081C14.9725 16.1831 14.3412 13.9456 14.0975 12.2956L12.685 14.6456L12.4537 14.6331C10.4287 14.4956 8.8725 13.2644 7.81 11.7769C7.00375 10.6456 6.46 9.35188 6.1475 8.17688C4.985 8.82063 3.9975 8.65188 2.9325 8.13313ZM22.035 10.1644C19.5787 10.1644 17.3038 10.9519 15.4538 12.2894C15.5975 13.2706 15.71 14.0956 15.91 14.8894C15.9412 14.8894 15.9662 14.8831 15.9975 14.8831H16.11C16.6725 14.8769 17.2225 15.0206 17.71 15.3019C19.1975 16.1644 19.71 18.0831 18.8538 19.5706C17.9913 21.0581 16.0725 21.5706 14.585 20.7144C14.0537 20.4081 13.6475 19.9581 13.3787 19.4456C12.585 19.5081 11.76 19.5331 10.9475 19.5206C10.8475 20.1331 10.7913 20.7644 10.7913 21.4081C10.7913 24.4019 11.96 27.1206 13.8663 29.1331H19.06C18.9725 28.8456 18.9225 28.5394 18.9225 28.2206C18.9225 26.5019 20.3288 25.0956 22.0475 25.0956C23.7663 25.0956 25.1725 26.5019 25.1725 28.2206C25.1725 28.5394 25.1225 28.8456 25.035 29.1331H28.91V27.7769C28.0912 28.0456 27.1725 27.9831 26.3725 27.5206C24.885 26.6581 24.3725 24.7394 25.2288 23.2519C25.76 22.3269 26.7288 21.7394 27.7913 21.6894H27.9037C28.2475 21.6831 28.585 21.7394 28.91 21.8456V20.9581C27.5412 21.4019 25.9912 20.8456 25.2412 19.5519C24.385 18.0644 24.8975 16.1456 26.385 15.2831C26.8413 15.0206 27.3537 14.8831 27.8787 14.8706H27.985C28.3038 14.8769 28.6162 14.9269 28.91 15.0206V12.5081C27.01 11.0394 24.6225 10.1644 22.035 10.1644ZM22.035 11.4706C23.7537 11.4706 25.16 12.8769 25.16 14.5956C25.16 16.3144 23.7537 17.7206 22.035 17.7206C20.3162 17.7206 18.91 16.3144 18.91 14.5956C18.91 12.8769 20.3162 11.4706 22.035 11.4706ZM22.035 12.5956C20.9225 12.5956 20.035 13.4831 20.035 14.5956C20.035 15.7081 20.9225 16.5956 22.035 16.5956C23.1475 16.5956 24.035 15.7081 24.035 14.5956C24.035 13.4831 23.1475 12.5956 22.035 12.5956ZM22.035 13.5956C22.585 13.5956 23.035 14.0456 23.035 14.5956C23.035 15.1456 22.585 15.5956 22.035 15.5956C21.485 15.5956 21.035 15.1456 21.035 14.5956C21.035 14.0456 21.485 13.5956 22.035 13.5956ZM27.9037 15.9956C27.5662 16.0019 27.235 16.0894 26.9475 16.2581C25.985 16.8144 25.66 18.0269 26.2162 18.9894C26.7662 19.9394 27.9537 20.2706 28.91 19.7394V18.2706C28.8412 18.5081 28.685 18.7269 28.4475 18.8581C27.9663 19.1331 27.36 18.9644 27.085 18.4894C26.81 18.0144 26.9725 17.4019 27.4475 17.1269C27.5913 17.0394 27.7538 16.9956 27.9225 16.9894C28.2913 16.9769 28.635 17.1706 28.8162 17.4894C28.86 17.5644 28.885 17.6394 28.91 17.7144V16.2394C28.61 16.0769 28.26 15.9894 27.9037 15.9956ZM22.035 20.4081C22.585 20.4081 23.035 20.8581 23.035 21.4081C23.035 21.9581 22.585 22.4081 22.035 22.4081C21.485 22.4081 21.035 21.9581 21.035 21.4081C21.035 20.8581 21.485 20.4081 22.035 20.4081ZM16.06 21.6894H16.1663C17.2725 21.7019 18.2912 22.2956 18.8412 23.2519C19.6975 24.7394 19.185 26.6581 17.6975 27.5206C16.21 28.3769 14.2913 27.8644 13.4288 26.3769C12.5725 24.8894 13.085 22.9706 14.5725 22.1081C15.0225 21.8456 15.535 21.7019 16.06 21.6894ZM16.085 22.8144C15.7537 22.8206 15.4225 22.9144 15.135 23.0831C14.1725 23.6394 13.8475 24.8519 14.4037 25.8144C14.96 26.7769 16.1725 27.1019 17.135 26.5456C18.0975 25.9894 18.4225 24.7769 17.8662 23.8144C17.4975 23.1769 16.8162 22.7956 16.085 22.8144ZM27.8412 22.8144C27.16 22.8456 26.5413 23.2206 26.2038 23.8144C25.6475 24.7769 25.9725 25.9894 26.935 26.5456C27.5725 26.9144 28.3162 26.8956 28.91 26.5644V25.0331C28.885 25.1331 28.8475 25.2269 28.7975 25.3144C28.5225 25.7894 27.91 25.9519 27.435 25.6769C26.96 25.4019 26.7912 24.7956 27.0662 24.3144C27.235 24.0206 27.5475 23.8331 27.885 23.8144H27.96C28.1287 23.8206 28.2912 23.8644 28.435 23.9456C28.685 24.0894 28.8537 24.3269 28.91 24.5894V23.0706C28.6287 22.9081 28.3038 22.8206 27.985 22.8144H27.8412ZM16.11 23.8144C16.4725 23.8081 16.8162 23.9956 16.9975 24.3144C17.2725 24.7894 17.11 25.4019 16.635 25.6769C16.16 25.9581 15.5413 25.7956 15.2663 25.3144C14.9913 24.8331 15.1538 24.2206 15.635 23.9456C15.7788 23.8644 15.9413 23.8206 16.11 23.8144ZM22.0475 26.2206C20.935 26.2206 20.0475 27.1081 20.0475 28.2206C20.0475 28.5519 20.1288 28.8581 20.2663 29.1331H21.6413C21.2913 28.9769 21.0475 28.6269 21.0475 28.2206C21.0475 27.6706 21.4975 27.2206 22.0475 27.2206C22.5975 27.2206 23.0475 27.6706 23.0475 28.2206C23.0475 28.6269 22.8038 28.9769 22.4538 29.1331H23.8288C23.9663 28.8581 24.0475 28.5519 24.0475 28.2206C24.0475 27.1081 23.16 26.2206 22.0475 26.2206Z" fill="black"/>
</svg>
