<svg width="29" height="30" viewBox="0 0 29 30" fill="none" xmlns="http://www.w3.org/2000/svg">
<path d="M10.9591 0C9.04813 0 7.50006 1.54812 7.50006 3.45894C7.50025 3.82797 7.55955 4.19459 7.67569 4.54488L5.22069 7.3965H8.41212V5.79887C9.04425 6.48725 9.95069 6.91994 10.959 6.91994V3.96669H14.6211V2.79888H10.9589V0.000125051L10.9591 0ZM0.86325 8.56437V13.5371L2.61525 14.5605C2.71075 12.2649 4.61325 10.4219 6.93169 10.4219C9.31075 10.4219 11.252 12.3632 11.252 14.7422C11.252 16.2879 10.4316 17.6484 9.20512 18.4121L10.8809 19.3906H14.1836V8.5645H0.86325V8.56437ZM21.4923 11.3652V16.5801H25.4258V11.3652H21.4923H21.4923ZM6.93162 11.5898C6.51734 11.5887 6.10692 11.6695 5.72396 11.8275C5.34099 11.9855 4.99304 12.2177 4.7001 12.5106C4.40716 12.8036 4.17502 13.1515 4.017 13.5345C3.85899 13.9175 3.77824 14.3279 3.77938 14.7422C3.77938 15.4467 4.00763 16.0956 4.39456 16.6191L2.9825 18.2734C3.35413 18.4209 3.68919 18.6407 3.97275 18.9141L5.254 17.4121C5.7565 17.7281 6.3382 17.8954 6.93181 17.8946C7.34611 17.8957 7.75654 17.8149 8.13952 17.6569C8.5225 17.4989 8.87046 17.2667 9.16342 16.9738C9.45637 16.6808 9.68853 16.3329 9.84655 15.9499C10.0046 15.5669 10.0853 15.1565 10.0842 14.7422C10.0853 14.3279 10.0046 13.9175 9.84655 13.5345C9.68853 13.1515 9.45637 12.8035 9.16342 12.5106C8.87046 12.2176 8.5225 11.9855 8.13952 11.8275C7.75654 11.6694 7.34611 11.5887 6.93181 11.5898H6.93162ZM15.3516 12.3457V15.5996H20.3243V12.3457H15.3516ZM26.5938 12.3457V15.5996H28.2168V12.3457H26.5939H26.5938ZM6.96094 12.6992C8.08369 12.6992 9.00594 13.6233 9.00594 14.7461C9.00594 15.8688 8.08375 16.7911 6.96094 16.7911C5.83812 16.7911 4.91406 15.8688 4.91406 14.7461C4.91406 13.6233 5.83819 12.6992 6.96094 12.6992ZM6.96094 13.8672C6.46938 13.8672 6.082 14.2545 6.082 14.7461C6.082 15.2376 6.4695 15.6229 6.961 15.6229C7.4525 15.6229 7.83787 15.2376 7.83787 14.7461C7.83787 14.2545 7.4525 13.8671 6.961 13.8671L6.96094 13.8672ZM1.86906 19.2284C0.829813 19.2284 0 20.0583 0 21.0976C0 22.137 0.82975 22.9668 1.86906 22.9668C2.90838 22.9668 3.73819 22.137 3.73819 21.0977C3.73819 20.0584 2.90844 19.2286 1.86913 19.2286L1.86906 19.2284ZM3.78125 23.4531C3.46354 23.7119 3.09684 23.9039 2.70313 24.0176L4.88081 26.291C4.38501 26.8218 4.00459 27.4496 3.76356 28.1348H1.33013V29.3026H3.49813V29.3045L4.7305 29.3046C5.01506 27.3524 6.70406 25.8437 8.73238 25.8437C10.7609 25.8437 12.4482 27.3524 12.7324 29.3046H13.9668C13.9668 29.304 13.9669 29.3034 13.9669 29.3026H16.1622V28.1348H13.7013C12.9813 26.085 11.0331 24.6211 8.7325 24.6211C7.63138 24.6211 6.61125 24.9551 5.76762 25.5292L3.78138 23.4531L3.78125 23.4531ZM8.73244 27.0117C7.33731 27.0117 6.18169 27.9917 5.91406 29.3047H11.5489C11.4166 28.656 11.0637 28.0731 10.5503 27.655C10.0369 27.237 9.39451 27.0097 8.73244 27.0117Z" fill="black"/>
</svg>
