<svg width="29" height="29" viewBox="0 0 29 29" fill="none" xmlns="http://www.w3.org/2000/svg">
<path d="M11.0099 4.80066C11.0161 4.60503 11.0099 4.41128 10.9974 4.22378L14.3911 8.34441C14.6474 8.67566 14.8036 9.01316 14.8786 9.39441C14.9599 9.84441 14.9099 10.3132 14.7349 10.7382C14.6161 11.0257 14.4349 11.2882 14.2161 11.5132C13.4849 12.0882 12.9224 12.3007 12.0911 12.1569L6.86615 11.0882L6.8974 11.0694C7.6849 10.7069 8.39115 10.2069 8.99115 9.58191C9.5974 8.95066 10.0911 8.21941 10.4349 7.41316C10.7911 6.58816 10.9911 5.70066 11.0099 4.80066ZM14.2786 6.38191L15.2849 7.60691C15.6599 8.06316 15.9099 8.60066 16.0161 9.18191C16.3099 10.8194 15.4349 12.4444 13.8974 13.0944C13.5599 13.2319 13.2099 13.3194 12.8474 13.3507C12.5099 13.3757 12.1786 13.3694 11.8536 13.2944L8.3724 12.5757L8.29115 14.0382L16.2974 14.0132L16.3786 6.22566L14.2786 6.38191ZM19.1911 9.33191C18.8849 9.35066 18.5849 9.65691 18.4474 9.87566C18.3099 10.1382 18.2724 10.4632 18.4599 10.7007C18.6599 10.9132 18.9474 10.9257 19.1974 10.7882C19.3911 10.6819 19.5286 10.5132 19.6224 10.3382C19.8349 9.88816 19.6536 9.31316 19.1911 9.33191ZM19.9161 11.9194C19.8786 11.8944 19.8411 11.8757 19.8036 11.8632C19.4161 11.7319 18.9974 12.0819 18.8536 12.3694C18.7411 12.6382 18.7349 12.9632 18.9411 13.1757C18.9911 13.2257 19.0474 13.2632 19.1099 13.2944C19.3974 13.4319 19.7474 13.2757 19.9349 13.0694C20.0599 12.9007 20.1536 12.6944 20.1661 12.5132C20.1786 12.2819 20.0599 12.0319 19.9161 11.9194ZM21.1724 11.7944C21.5036 11.5632 21.5724 11.0319 21.3974 10.7757C21.1161 10.5444 20.7724 10.3319 20.5099 10.1444V10.1507C20.4411 10.5194 20.2849 10.8507 20.0536 11.1069C20.4599 11.2944 20.8349 11.5757 21.1724 11.7944ZM19.9849 14.0882C19.6849 14.1132 19.4224 14.3819 19.3161 14.6132C19.2161 14.8882 19.2599 15.2069 19.4786 15.4069C19.7849 15.6757 20.2286 15.5882 20.4786 15.2944C20.5411 15.2194 20.5911 15.1382 20.6224 15.0444C20.7599 14.5944 20.5349 14.0507 19.9849 14.0882ZM21.9036 14.1632C21.9161 14.1444 21.9349 14.1319 21.9474 14.1132C22.1349 13.8882 22.1536 13.6007 22.0411 13.3507C21.9911 13.2632 21.9224 13.2007 21.8474 13.1444C21.5474 12.9632 21.2536 12.7819 20.9661 12.6007C20.9286 12.9132 20.8349 13.1944 20.6661 13.4319C21.0786 13.6819 21.5411 13.9569 21.9036 14.1632ZM18.7474 14.0069C18.6099 13.9382 18.4786 13.8444 18.3724 13.7319C18.2286 13.5819 18.1224 13.4069 18.0536 13.2132C17.9849 13.0194 17.9599 12.8132 17.9786 12.6069C17.9974 12.4069 18.0474 12.2194 18.1286 12.0382C18.1974 11.8882 18.2911 11.7444 18.4036 11.6194L18.2286 11.5257C18.0849 11.4507 17.9599 11.3444 17.8536 11.2194C17.7224 11.0569 17.6286 10.8694 17.5786 10.6632C17.5349 10.4632 17.5286 10.2569 17.5661 10.0569C17.5974 9.86316 17.6599 9.68191 17.7536 9.50691C17.8411 9.34441 17.9474 9.19441 18.0786 9.06316C18.2099 8.93191 18.3599 8.81941 18.5224 8.73191C18.6974 8.63816 18.8849 8.57566 19.0849 8.55066H19.1224C18.5474 7.68191 18.1036 7.00066 17.5411 6.13816L17.4536 14.0132C17.8411 14.0382 18.1849 14.2257 18.5599 14.3757C18.6099 14.2444 18.6786 14.1069 18.7474 14.0069ZM20.6974 16.4132C20.3224 16.2944 19.8974 16.6069 19.7974 16.9069C19.7349 17.0944 19.7536 17.3007 19.8349 17.4694C20.0161 17.9257 20.7099 17.9819 21.0224 17.5757C21.0786 17.5007 21.1411 17.4194 21.1536 17.3257C21.2161 16.8944 21.0911 16.5569 20.6974 16.4132ZM22.4536 16.4444C22.8036 16.2257 22.7724 15.6944 22.5411 15.4569C22.5036 15.4257 22.4661 15.3944 22.4224 15.3694L21.4661 14.8257C21.4536 15.1569 21.3474 15.4757 21.1474 15.7382C21.6036 15.9757 22.0661 16.2382 22.4536 16.4444ZM21.8599 18.6319C21.6724 18.4944 21.4411 18.3882 21.2411 18.3944C21.0536 18.4194 20.8849 18.5132 20.7661 18.6632C20.6474 18.8132 20.5911 19.0069 20.6161 19.1944C20.6411 19.3382 20.6849 19.4319 20.7661 19.5444C21.0599 19.9069 21.6161 19.9507 21.9099 19.5632C22.1286 19.2694 22.0724 18.8944 21.8599 18.6319ZM23.0286 18.7319L23.0411 18.7194C23.1786 18.6444 23.2849 18.5132 23.3224 18.3569C23.4036 18.0507 23.2474 17.7882 22.9974 17.6319C22.6536 17.4507 22.3161 17.2757 21.9786 17.0944C21.9786 17.4382 21.8661 17.7694 21.6599 18.0444C22.1599 18.2632 22.5661 18.4882 23.0286 18.7319ZM22.3849 20.5194C22.1974 20.4694 21.9911 20.4819 21.8286 20.5819C21.6724 20.6694 21.5536 20.8257 21.5099 21.0007C21.4849 21.2507 21.5224 21.4694 21.6661 21.6382C21.9849 22.1007 22.7911 22.0069 22.9224 21.4069C23.0099 21.0444 22.7661 20.6069 22.3849 20.5194ZM24.1974 20.5132C24.2286 20.4569 24.2536 20.4007 24.2661 20.3382C24.3161 20.0382 24.1786 19.7507 23.9099 19.6194L22.8474 19.0819C22.8599 19.3257 22.8099 19.5632 22.7036 19.7819C23.2099 20.0007 23.7661 20.3007 24.1974 20.5132ZM23.5411 22.5819C23.3411 23.0319 23.3411 23.0319 23.5411 22.5819C23.3161 22.4944 23.0224 22.5257 22.8474 22.6257C22.5099 22.8507 22.4724 23.3944 22.7474 23.6819C23.0536 24.0507 23.8974 24.0069 24.0036 23.4007C24.0599 23.0694 23.8661 22.7194 23.5411 22.5819ZM25.2036 22.4319V22.4194C25.2411 22.2194 25.1786 22.0507 25.0724 21.8944C25.0036 21.8132 24.9161 21.7569 24.8286 21.7069C24.4661 21.5257 24.1036 21.3507 23.7411 21.1757C23.7536 21.3819 23.7224 21.5819 23.6474 21.7757C24.1474 21.9507 24.6849 22.2069 25.2036 22.4319ZM24.8661 24.5444C24.6099 24.4194 24.2599 24.4819 24.0724 24.6257C23.9661 24.7132 23.8911 24.8382 23.8599 24.9757C23.8224 25.2132 23.8911 25.4319 24.0349 25.6132C24.1286 25.7194 24.2474 25.8007 24.3786 25.8444C24.5849 25.9194 24.8099 25.8944 24.9911 25.7944C25.1474 25.7007 25.2599 25.5507 25.2974 25.3694C25.3661 25.0257 25.1286 24.6944 24.8661 24.5444ZM26.3286 24.3632C26.3349 24.3444 26.3349 24.3257 26.3411 24.3069C26.3786 23.9819 26.1911 23.7507 25.9286 23.6069L24.7974 23.1257C24.8224 23.3132 24.8036 23.5007 24.7536 23.6819C25.3224 23.8819 25.8724 24.1382 26.3286 24.3632ZM26.8536 28.2507C27.2349 28.4007 27.6099 28.5507 27.9911 28.7007C28.3661 28.7819 28.7161 28.6632 28.8036 28.3132C28.8224 27.9819 28.6849 27.7382 28.4411 27.5944C28.0786 27.4194 27.7161 27.2444 27.3474 27.0632C27.3724 27.5069 27.1411 28.0007 26.8536 28.2507ZM26.4849 26.8257C26.2411 26.4319 25.8099 26.2632 25.4161 26.4757C25.2599 26.5632 25.1474 26.7194 25.1099 26.8944C25.0474 27.1882 25.1786 27.4757 25.4099 27.6507C25.6536 27.8257 25.9599 27.8632 26.2286 27.7132C26.5599 27.5069 26.6161 27.1444 26.4849 26.8257ZM27.6036 26.3007C27.6224 26.0194 27.4286 25.7944 27.2099 25.6694L26.1036 25.1382C26.1099 25.3069 26.0974 25.4694 26.0599 25.6132C26.6099 25.8444 27.0911 26.0507 27.6036 26.3007ZM16.1974 16.5632C15.9036 16.5694 15.1099 16.7944 15.0599 17.1569L20.1911 27.4757C20.5724 27.2882 21.0161 27.0882 21.3349 26.8819C20.2911 24.8007 17.2411 18.6444 16.1974 16.5632ZM12.3849 16.5194L6.2849 26.7132C6.64115 26.9257 7.07865 27.1694 7.4099 27.3569C8.62865 25.2882 12.2786 19.2194 13.5036 17.1569C13.4474 16.9382 12.7349 16.3694 12.3849 16.5194ZM14.1661 18.3069L15.5849 23.2007C15.9411 23.1132 16.3036 22.9944 16.6224 22.9069L14.2599 18.1507L14.1661 18.3069ZM12.3349 15.3444C12.5224 15.3257 12.7349 15.3569 12.8911 15.4069C13.3349 15.5507 13.7599 15.7694 14.1036 16.0632C14.1536 16.1069 14.2036 16.1507 14.2536 16.2007H14.3224C14.7786 15.8319 15.5036 15.4507 15.9974 15.3944C16.3536 15.3819 16.7349 15.5069 16.9599 15.7007C17.1286 15.8319 17.2099 16.0194 17.3099 16.2132C18.2286 16.2132 19.1474 16.2257 20.0661 16.2319C19.1911 15.8757 18.3161 15.5194 17.4349 15.1694C14.3599 15.1694 11.2911 15.1819 8.21615 15.1944L11.2411 15.7632L11.4599 15.8007C11.6724 15.5319 11.9911 15.3632 12.3349 15.3444ZM4.02615 1.87378C3.89552 1.79878 3.7449 1.76628 3.5949 1.78003C3.5374 1.78628 3.48115 1.79878 3.42615 1.81753C3.20833 1.88696 3.02509 2.03668 2.91365 2.23628C2.79615 2.43628 2.76052 2.67316 2.81365 2.89878C2.90677 3.32878 3.35302 3.58191 3.7699 3.44253C4.2224 3.29378 4.4874 2.82566 4.3824 2.36128C4.3374 2.15628 4.20802 1.97941 4.02615 1.87378ZM9.85365 4.76941C9.8349 5.51941 9.6724 6.26316 9.3724 6.95066C9.07865 7.62566 8.66615 8.24441 8.15365 8.77566C7.65786 9.29584 7.06839 9.7178 6.41615 10.0194C5.8974 10.2569 5.3349 10.4069 4.76615 10.4569C4.64427 10.4694 4.5199 10.4757 4.3949 10.4757C3.73803 10.4817 3.08838 10.3385 2.4949 10.0569C1.94115 9.79409 1.4524 9.41205 1.06365 8.93816C0.676146 8.46316 0.38677 7.91941 0.213645 7.33191C0.0286143 6.70171 -0.0370954 6.04249 0.0198955 5.38816C0.0742705 4.71316 0.243645 4.05816 0.519895 3.44253C0.789118 2.84503 1.15202 2.29435 1.5949 1.81128C2.03167 1.33384 2.54495 0.932512 3.11365 0.623784C3.68566 0.310169 4.3123 0.108645 4.9599 0.0300345L5.0974 0.0175344C5.6849 -0.0349656 6.27865 0.0306595 6.84115 0.211284C7.42865 0.400659 7.9599 0.716284 8.4099 1.13628C8.87865 1.57378 9.24115 2.10628 9.4849 2.69878C9.7474 3.35628 9.87865 4.06191 9.85365 4.76941ZM5.34115 1.86753L4.72865 1.32378C4.70365 1.30316 4.69115 1.28878 4.66615 1.26753C4.2499 0.923785 3.68427 0.817535 3.1699 0.986285C2.74038 1.12018 2.37821 1.41305 2.1574 1.80503C1.93155 2.19637 1.86444 2.65943 1.9699 3.09878C2.02954 3.35795 2.15275 3.59821 2.32842 3.79788C2.50409 3.99755 2.72669 4.15036 2.97615 4.24253L3.86365 4.58628C3.87802 4.59316 3.8924 4.59941 3.9074 4.60503C4.1024 4.66941 4.30865 4.69441 4.51365 4.67566C5.02865 4.62566 5.4849 4.32691 5.7349 3.87378C6.12865 3.18628 5.95365 2.31128 5.34115 1.86753Z" fill="black"/>
</svg>
