<svg width="29" height="27" viewBox="0 0 29 27" fill="none" xmlns="http://www.w3.org/2000/svg">
<path d="M13.135 0C12.5931 0.0001875 12.0525 0.0329374 11.5567 0.0931249L12.9939 0.554L14.6227 0.10375L13.6912 0.620375L15.5151 0.679L13.5671 0.801062L14.0438 1.10694C14.8013 1.02044 15.6113 0.836 16.4896 0.530937C16.3074 0.44125 16.0573 0.351375 15.7624 0.276937C15.0519 0.0975625 14.0905 -0.000187534 13.1351 6.24657e-05L13.135 0ZM11.5442 0.0944998C11.1705 0.14025 10.8217 0.201062 10.5216 0.27775C10.2225 0.354125 9.97135 0.446812 9.79473 0.5375C9.98594 0.611619 10.1793 0.680086 10.3745 0.742812L12.3948 0.634437L11.5442 0.0944998ZM10.4082 0.753437C10.8807 0.90325 11.3681 1.018 11.8774 1.088L12.4062 0.815187L10.4082 0.753437ZM12.954 0.888812L12.1293 1.11881C12.6502 1.17431 13.1944 1.18269 13.7687 1.13425L12.954 0.888812ZM16.801 1.61131C13.9208 2.5865 11.5584 2.38194 9.51979 1.63275V18.2192C11.7504 19.0847 14.1529 19.0496 16.801 18.1252C16.8029 12.6276 16.8014 6.83494 16.801 1.61144V1.61131ZM18.4523 11.7603C18.4479 11.7604 18.4434 11.7604 18.4389 11.7604C18.5023 11.8363 18.5636 11.9138 18.6227 11.9931C19.1114 12.6481 19.5389 13.5134 19.863 14.4094C20.0046 14.8006 20.1252 15.1954 20.2188 15.5819L20.4358 14.4816L20.4335 14.4942C20.455 14.372 20.4817 14.2509 20.5137 14.1311C20.3314 13.4509 20.0188 12.8187 19.639 12.3923C19.2784 11.9873 18.8992 11.7695 18.4525 11.7603L18.4523 11.7603ZM24.5315 12.1098C22.9794 12.1139 21.8431 12.9514 21.5415 14.6867L21.5405 14.6931L21.3021 16.0266C22.2896 15.4274 23.3213 15.0469 24.4621 15.0811C25.7652 15.1202 27.1926 15.5186 28.2782 16.2169L28.067 14.6361L28.0664 14.6293C27.7315 12.793 26.2232 12.1239 24.5316 12.1097L24.5315 12.1098ZM17.9259 12.9661V18.1606L19.1614 17.7515L19.1604 17.7461C19.1926 17.7394 19.1769 17.7671 19.2218 17.6624C19.2668 17.5576 19.3084 17.3305 19.3012 17.0359C19.2866 16.4468 19.0989 15.6043 18.805 14.792C18.5627 14.122 18.247 13.4679 17.9258 12.9661H17.9259ZM8.39479 13.97C6.71791 14.3448 5.00091 14.7284 3.70866 15.0184C3.49035 15.0674 3.37366 15.0941 3.17491 15.1387C3.32772 15.248 3.47276 15.3678 3.60898 15.4973C4.40898 16.2584 4.9641 17.3233 5.2721 18.4496C5.58023 19.5758 5.64273 20.7681 5.36979 21.8152C5.31981 22.008 5.25593 22.1969 5.17866 22.3804L8.39491 21.3158L8.39479 13.97ZM1.19216 15.594C1.17841 15.5942 1.16416 15.5956 1.15029 15.5961L1.10241 15.6069C0.961289 15.6394 0.830289 15.6734 0.884289 15.6581L0.872602 15.6613L0.860914 15.6641C0.658102 15.7127 0.515914 15.816 0.376039 16.021C0.236164 16.2261 0.119602 16.5375 0.0563517 16.9231C-0.0701483 17.6942 0.0183516 18.7431 0.301477 19.7387C0.584602 20.7341 1.06298 21.6778 1.62679 22.2754C2.13479 22.814 2.64491 23.0704 3.24729 22.9914C3.77354 22.7216 4.10091 22.2244 4.28141 21.5317C4.48916 20.7346 4.45079 19.7098 4.18735 18.7464C3.92373 17.783 3.43648 16.8858 2.83373 16.3123C2.34404 15.8464 1.8131 15.5842 1.19216 15.5941V15.594ZM24.4112 16.2029C23.0876 16.1949 21.8374 16.6338 20.9602 17.6348L20.7486 18.7069C21.7117 17.6998 23.067 17.0703 24.5665 17.0703C26.2095 17.0703 27.6802 17.8248 28.6508 19.0051L28.4914 17.8127C27.496 16.8529 26.0054 16.249 24.5535 16.2054C24.506 16.2041 24.4586 16.2032 24.4112 16.2029L24.4112 16.2029ZM0.870852 17.0177L2.03979 18.8243L2.89373 17.4587L2.4756 19.2806L4.17548 20.2771L2.6266 19.9808L3.27798 21.6904L2.17154 20.0592L1.37235 21.3232L1.71329 19.5981L0.138039 18.6824L1.64241 19.0254L0.870852 17.0177ZM24.5665 18.0561C22.1855 18.0561 20.2659 19.9758 20.2659 22.3568C20.2659 24.7379 22.1855 26.6574 24.5665 26.6574C26.9476 26.6574 28.8673 24.7378 28.8673 22.3568C28.8673 19.9757 26.9475 18.056 24.5665 18.056V18.0561ZM16.801 19.3106C14.2429 20.1313 11.7929 20.1858 9.51979 19.4144V21.9167C11.7504 22.7964 14.1528 22.7733 16.801 21.8588V19.3106ZM24.5665 20.8272C25.4113 20.8272 26.0962 21.512 26.0962 22.3568C26.0962 23.2016 25.4113 23.8864 24.5665 23.8864C23.7217 23.8864 23.0368 23.2016 23.0368 22.3568C23.0368 21.5119 23.7217 20.8271 24.5665 20.8271V20.8272ZM16.9896 22.9827C14.3167 23.8679 11.7602 23.9202 9.39791 23.0723L9.2006 23.9234C11.6311 25.1221 14.513 25.1062 17.25 23.9102L16.9896 22.9827Z" fill="black"/>
</svg>
