<svg width="27" height="28" viewBox="0 0 27 28" fill="none" xmlns="http://www.w3.org/2000/svg">
<path d="M2.4375 0C1.64875 0 1.10125 0.404375 0.67125 1.13063C0.24125 1.85625 0 2.89562 0 3.9375C0 4.98125 0.24125 6.01875 0.67125 6.74375C1.10125 7.46875 1.64875 7.875 2.4375 7.875H4.875V0H2.4375ZM6 0V7.875H16.875V0H6ZM18 0V7.875H20.4375C21.225 7.875 21.775 7.46875 22.2062 6.74375C22.6312 6.01875 22.875 4.98125 22.875 3.9375C22.875 2.89562 22.6312 1.85625 22.2062 1.13063C21.775 0.404375 21.225 0 20.4375 0H18ZM4.875 9V11H0V16.875H22.875V11H18V9H16.875V11H6V9H4.875ZM24 12V13.875H26.875V12H24ZM2.90375 12.2625L3.96875 12.6125L2.97125 15.6125L1.90375 15.2625L2.90375 12.2625ZM5.90625 12.2625L6.96875 12.6125L5.96875 15.6125L4.90625 15.2625L5.90625 12.2625ZM8.90625 12.2625L9.96875 12.6125L8.96875 15.6125L7.90625 15.2625L8.90625 12.2625ZM2.74687 18L1.5 25.4813C2.30563 24.1 3.15438 22.7313 4.18125 21.4813C5.30625 20.1188 6.65625 18.9 8.375 18H2.74687ZM10.4438 18.3188C8.08125 19.1438 6.425 20.5188 5.05 22.1938C3.6625 23.8813 2.57687 25.8875 1.42062 27.875H6.4375C6.75 27.875 7.10625 27.725 7.5375 27.2875C7.9625 26.8625 8.43125 26.175 8.90625 25.2437L10.4438 18.3188ZM12.875 18.4375V19.875H11.25L11 21H12.875V22.4375H14V18.4375H12.875Z" fill="black"/>
</svg>
