<svg width="30" height="28" viewBox="0 0 30 28" fill="none" xmlns="http://www.w3.org/2000/svg">
<path d="M14.6859 0C14.5746 0.00397364 14.4633 0.00855712 14.3521 0.0137501L13.5376 0.2305L14.5416 3.97656L11.9457 4.29881L10.8891 0.353437C9.62968 0.540625 8.37062 0.79625 7.15093 1.12306C5.70781 1.50969 4.41981 2.13644 3.34999 2.91594C2.92443 2.28694 2.13281 1.96431 1.35781 2.17194C0.380307 2.43381 -0.198943 3.43856 0.0629316 4.41606C0.193682 4.904 0.509494 5.29281 0.914494 5.52744C0.0811191 6.92369 -0.204006 8.44219 0.184057 9.89075C0.648057 11.6226 1.99543 12.9603 3.87743 13.7248C4.17613 13.8457 4.48128 13.95 4.79149 14.0373C0.303182 19.2939 -0.290381 29.7463 8.72306 27.5763C8.14956 27.3623 7.68456 26.8844 7.51406 26.2481C7.23437 25.204 7.85393 24.1316 8.89693 23.8497C8.58989 23.5922 8.36961 23.2465 8.26606 22.8594C8.02793 21.9705 8.44168 21.0596 9.21337 20.6348C8.99099 20.404 8.82356 20.1148 8.73481 19.7833C8.49981 18.9061 8.89868 18.0099 9.65081 17.5783L9.65856 17.4825C9.28156 17.2276 8.99062 16.8413 8.86356 16.3673C8.63568 15.5166 9.00456 14.6466 9.71324 14.2013C10.0076 14.1456 10.3034 14.0795 10.5999 14C10.6245 13.9935 10.6495 13.9853 10.6741 13.9786C10.7391 13.9611 10.8043 13.9421 10.8694 13.9239C11.4323 16.8922 13.1231 18.2123 14.5862 17.2346C13.2318 16.0464 12.7687 14.7078 12.7268 13.3419C13.2285 13.1681 13.726 12.9825 14.219 12.7853L12.9924 8.20519L15.426 7.2755L16.5784 11.5783L17.2502 11.3986C17.394 11.3243 17.5382 11.2499 17.6799 11.174L16.5217 6.85763L18.9573 5.92794L19.9319 9.56656L20.6075 9.38688C20.7446 9.29131 20.8807 9.19428 21.0158 9.09581L20.0552 5.50781L22.3969 4.61325L23.1157 7.29688L23.1469 7.28906C23.4881 6.94594 23.7909 6.60469 24.0493 6.2695L23.4947 4.19531L24.2622 3.90231L25.2544 3.63669C25.7092 4.53694 26.7384 5.02031 27.7544 4.74806C28.9206 4.43556 29.6039 3.25206 29.2915 2.08594C29.018 1.06562 28.0789 0.413938 27.0668 0.476562C26.9222 0.4855 26.7751 0.509687 26.6293 0.548812C25.7061 0.796187 25.0854 1.58988 25.0218 2.48831L23.7249 2.83594L23.1489 2.90819L22.6527 1.05275C22.2871 0.90025 21.8862 0.762313 21.4535 0.640563L21.3402 0.669938L21.979 3.05463L19.4809 3.36325L18.6117 0.117125C18.4931 0.104625 18.373 0.0927501 18.2524 0.0819376L17.4497 0.294938L18.3109 3.50975L15.7114 3.83012L14.686 0.000124931L14.6859 0Z" fill="black"/>
</svg>
