<svg width="16" height="11" viewBox="0 0 16 11" fill="none" xmlns="http://www.w3.org/2000/svg">
<g clip-path="url(#clip0_54_136)">
<path d="M6.4 7.7H9.6V6.875H8.53333V3.025H7.58333L6.35 4.20234L6.99167 4.88984C7.225 4.67786 7.37778 4.51458 7.45 4.4H7.46667V6.875H6.4V7.7ZM10.6667 5.5C10.6667 5.90104 10.6083 6.30781 10.4917 6.72031C10.375 7.13281 10.2097 7.51667 9.99583 7.87188C9.78194 8.22708 9.5 8.51641 9.15 8.73984C8.8 8.96328 8.41667 9.075 8 9.075C7.58333 9.075 7.2 8.96328 6.85 8.73984C6.5 8.51641 6.21806 8.22708 6.00417 7.87188C5.79028 7.51667 5.625 7.13281 5.50833 6.72031C5.39167 6.30781 5.33333 5.90104 5.33333 5.5C5.33333 5.09896 5.39167 4.69219 5.50833 4.27969C5.625 3.86719 5.79028 3.48333 6.00417 3.12813C6.21806 2.77292 6.5 2.48359 6.85 2.26016C7.2 2.03672 7.58333 1.925 8 1.925C8.41667 1.925 8.8 2.03672 9.15 2.26016C9.5 2.48359 9.78194 2.77292 9.99583 3.12813C10.2097 3.48333 10.375 3.86719 10.4917 4.27969C10.6083 4.69219 10.6667 5.09896 10.6667 5.5ZM14.9333 7.7V3.3C14.3444 3.3 13.8417 3.08516 13.425 2.65547C13.0083 2.22578 12.8 1.70729 12.8 1.1H3.2C3.2 1.70729 2.99167 2.22578 2.575 2.65547C2.15833 3.08516 1.65556 3.3 1.06667 3.3V7.7C1.65556 7.7 2.15833 7.91484 2.575 8.34453C2.99167 8.77422 3.2 9.29271 3.2 9.9H12.8C12.8 9.29271 13.0083 8.77422 13.425 8.34453C13.8417 7.91484 14.3444 7.7 14.9333 7.7ZM16 0.55V10.45C16 10.599 15.9472 10.7279 15.8417 10.8367C15.7361 10.9456 15.6111 11 15.4667 11H0.533333C0.388889 11 0.263889 10.9456 0.158333 10.8367C0.0527778 10.7279 0 10.599 0 10.45V0.55C0 0.401042 0.0527778 0.272135 0.158333 0.163281C0.263889 0.0544271 0.388889 0 0.533333 0H15.4667C15.6111 0 15.7361 0.0544271 15.8417 0.163281C15.9472 0.272135 16 0.401042 16 0.55Z" fill="black"/>
</g>
<defs>
<clipPath id="clip0_54_136">
<rect width="16" height="11" fill="white"/>
</clipPath>
</defs>
</svg>
