<svg width="16" height="16" viewBox="0 0 16 16" fill="none" xmlns="http://www.w3.org/2000/svg">
<g clip-path="url(#clip0_54_126)">
<path d="M16 7H14.423C14.208 5.63902 13.5675 4.38112 12.5932 3.40683C11.6189 2.43254 10.361 1.79196 9 1.577V0H7V1.577C5.63902 1.79196 4.38112 2.43254 3.40683 3.40683C2.43254 4.38112 1.79196 5.63902 1.577 7H0V9H1.577C1.79196 10.361 2.43254 11.6189 3.40683 12.5932C4.38112 13.5675 5.63902 14.208 7 14.423V16H9V14.423C10.361 14.208 11.6189 13.5675 12.5932 12.5932C13.5675 11.6189 14.208 10.361 14.423 9H16V7ZM12.388 7H10.829C10.6799 6.57801 10.4382 6.19473 10.1217 5.87826C9.80527 5.56178 9.42199 5.32013 9 5.171V3.612C9.82548 3.80248 10.5808 4.22111 11.1799 4.82015C11.7789 5.41919 12.1975 6.17452 12.388 7ZM8 9C7.73478 9 7.48043 8.89464 7.29289 8.70711C7.10536 8.51957 7 8.26522 7 8C7 7.73478 7.10536 7.48043 7.29289 7.29289C7.48043 7.10536 7.73478 7 8 7C8.26522 7 8.51957 7.10536 8.70711 7.29289C8.89464 7.48043 9 7.73478 9 8C9 8.26522 8.89464 8.51957 8.70711 8.70711C8.51957 8.89464 8.26522 9 8 9ZM7 3.612V5.171C6.57801 5.32013 6.19473 5.56178 5.87826 5.87826C5.56178 6.19473 5.32013 6.57801 5.171 7H3.612C3.80248 6.17452 4.22111 5.41919 4.82015 4.82015C5.41919 4.22111 6.17452 3.80248 7 3.612ZM3.612 9H5.171C5.32013 9.42199 5.56178 9.80527 5.87826 10.1217C6.19473 10.4382 6.57801 10.6799 7 10.829V12.388C6.17452 12.1975 5.41919 11.7789 4.82015 11.1799C4.22111 10.5808 3.80248 9.82548 3.612 9ZM9 12.388V10.829C9.42199 10.6799 9.80527 10.4382 10.1217 10.1217C10.4382 9.80527 10.6799 9.42199 10.829 9H12.388C12.1975 9.82548 11.7789 10.5808 11.1799 11.1799C10.5808 11.7789 9.82548 12.1975 9 12.388Z" fill="black"/>
</g>
<defs>
<clipPath id="clip0_54_126">
<rect width="16" height="16" fill="white"/>
</clipPath>
</defs>
</svg>
