<svg width="16" height="16" viewBox="0 0 16 16" fill="none" xmlns="http://www.w3.org/2000/svg">
<path d="M12.6667 1.33334V2.66668H11.3334V4.66668C11.8638 4.66668 12.3725 4.87739 12.7476 5.25246C13.1226 5.62754 13.3334 6.13624 13.3334 6.66668V14C13.3334 14.1768 13.2631 14.3464 13.1381 14.4714C13.0131 14.5964 12.8435 14.6667 12.6667 14.6667H3.33335C3.15654 14.6667 2.98697 14.5964 2.86195 14.4714C2.73693 14.3464 2.66669 14.1768 2.66669 14V6.66668C2.66669 6.13624 2.8774 5.62754 3.25247 5.25246C3.62755 4.87739 4.13625 4.66668 4.66669 4.66668V2.66668H3.33335V1.33334H12.6667ZM11.3334 6.00001H4.66669C4.48988 6.00001 4.32031 6.07025 4.19528 6.19527C4.07026 6.3203 4.00002 6.48987 4.00002 6.66668V13.3333H12V6.66668C12 6.48987 11.9298 6.3203 11.8048 6.19527C11.6797 6.07025 11.5102 6.00001 11.3334 6.00001ZM8.66669 7.33334V8.66668H10V10H8.66602L8.66669 11.3333H7.33335L7.33269 10H6.00002V8.66668H7.33335V7.33334H8.66669ZM10 2.66668H6.00002V4.66668H10V2.66668Z" fill="black"/>
</svg>
