<svg width="16" height="16" viewBox="0 0 16 16" fill="none" xmlns="http://www.w3.org/2000/svg">
<path d="M14.6666 14.6667H1.33331M1.33331 7.33333L6.75065 3C7.10526 2.71633 7.54586 2.56178 7.99998 2.56178C8.4541 2.56178 8.8947 2.71633 9.24931 3L14.6666 7.33333M10.3333 3.66667V2.33333C10.3333 2.24493 10.3684 2.16014 10.4309 2.09763C10.4935 2.03512 10.5782 2 10.6666 2H12.3333C12.4217 2 12.5065 2.03512 12.569 2.09763C12.6315 2.16014 12.6666 2.24493 12.6666 2.33333V5.66667M2.66665 14.6667V6.33333M13.3333 14.6667V6.33333" stroke="black" stroke-width="1.5" stroke-linecap="round"/>
<path d="M10 14.6667V11.3333C10 10.3907 10 9.91933 9.70667 9.62667C9.41467 9.33333 8.94333 9.33333 8 9.33333C7.05667 9.33333 6.586 9.33333 6.29333 9.62667C6 9.91867 6 10.39 6 11.3333V14.6667M9.33333 6.33333C9.33333 6.68696 9.19286 7.02609 8.94281 7.27614C8.69276 7.52619 8.35362 7.66667 8 7.66667C7.64638 7.66667 7.30724 7.52619 7.05719 7.27614C6.80714 7.02609 6.66667 6.68696 6.66667 6.33333C6.66667 5.97971 6.80714 5.64057 7.05719 5.39052C7.30724 5.14048 7.64638 5 8 5C8.35362 5 8.69276 5.14048 8.94281 5.39052C9.19286 5.64057 9.33333 5.97971 9.33333 6.33333Z" stroke="black" stroke-width="1.5"/>
</svg>
