<svg width="16" height="16" viewBox="0 0 16 16" fill="none" xmlns="http://www.w3.org/2000/svg">
<path d="M7.9984 9.19999C8.31666 9.19999 8.62189 9.07356 8.84693 8.84852C9.07197 8.62347 9.1984 8.31825 9.1984 7.99999C9.1984 7.68173 9.07197 7.3765 8.84693 7.15146C8.62189 6.92642 8.31666 6.79999 7.9984 6.79999C7.68014 6.79999 7.37492 6.92642 7.14987 7.15146C6.92483 7.3765 6.7984 7.68173 6.7984 7.99999C6.7984 8.31825 6.92483 8.62347 7.14987 8.84852C7.37492 9.07356 7.68014 9.19999 7.9984 9.19999ZM3.9984 7.99999C3.9984 6.93912 4.41983 5.92171 5.16997 5.17156C5.92012 4.42142 6.93754 3.99999 7.9984 3.99999C9.05927 3.99999 10.0767 4.42142 10.8268 5.17156C11.577 5.92171 11.9984 6.93912 11.9984 7.99999C11.9984 9.06085 11.577 10.0783 10.8268 10.8284C10.0767 11.5786 9.05927 12 7.9984 12C6.93754 12 5.92012 11.5786 5.16997 10.8284C4.41983 10.0783 3.9984 9.06085 3.9984 7.99999ZM7.9984 5.19999C7.6307 5.19999 7.2666 5.27241 6.92689 5.41313C6.58718 5.55384 6.27851 5.76009 6.0185 6.02009C5.7585 6.28009 5.55225 6.58876 5.41154 6.92848C5.27083 7.26819 5.1984 7.63229 5.1984 7.99999C5.1984 8.36769 5.27083 8.73179 5.41154 9.0715C5.55225 9.41121 5.7585 9.71988 6.0185 9.97989C6.27851 10.2399 6.58718 10.4461 6.92689 10.5869C7.2666 10.7276 7.6307 10.8 7.9984 10.8C8.74101 10.8 9.4532 10.505 9.9783 9.97989C10.5034 9.45479 10.7984 8.74259 10.7984 7.99999C10.7984 7.25738 10.5034 6.54519 9.9783 6.02009C9.4532 5.49499 8.74101 5.19999 7.9984 5.19999ZM1.5968 7.99759C1.5968 6.30042 2.271 4.67275 3.47108 3.47267C4.67117 2.27259 6.29883 1.59839 7.996 1.59839C9.69317 1.59839 11.3208 2.27259 12.5209 3.47267C13.721 4.67275 14.3952 6.30042 14.3952 7.99759C14.3952 9.69476 13.721 11.3224 12.5209 12.5225C11.3208 13.7226 9.69317 14.3968 7.996 14.3968C6.29883 14.3968 4.67117 13.7226 3.47108 12.5225C2.271 11.3224 1.5968 9.69476 1.5968 7.99759ZM7.9968 2.79839C7.30636 2.78628 6.62042 2.91181 5.97901 3.16765C5.33761 3.4235 4.75358 3.80453 4.26103 4.28853C3.76847 4.77252 3.37725 5.34977 3.11019 5.98659C2.84313 6.62341 2.70559 7.30704 2.70559 7.99759C2.70559 8.68814 2.84313 9.37177 3.11019 10.0086C3.37725 10.6454 3.76847 11.2227 4.26103 11.7067C4.75358 12.1906 5.33761 12.5717 5.97901 12.8275C6.62042 13.0834 7.30636 13.2089 7.9968 13.1968C9.35992 13.1729 10.6591 12.6146 11.6147 11.6422C12.5702 10.6697 13.1056 9.36092 13.1056 7.99759C13.1056 6.63426 12.5702 5.32546 11.6147 4.35302C10.6591 3.38059 9.35992 2.8223 7.9968 2.79839Z" fill="black"/>
</svg>
