<svg width="16" height="16" viewBox="0 0 16 16" fill="none" xmlns="http://www.w3.org/2000/svg">
<g clip-path="url(#clip0_54_138)">
<path fill-rule="evenodd" clip-rule="evenodd" d="M0.573018 4.10002C0.401446 4.18072 0.256381 4.30858 0.154772 4.46866C0.053163 4.62873 -0.000793457 4.81442 -0.000793457 5.00402C-0.000793457 5.19363 0.053163 5.37931 0.154772 5.53939C0.256381 5.69947 0.401446 5.82733 0.573018 5.90802L2.00302 6.58302V10.503C2.00302 11.245 2.24402 12.073 2.94702 12.583C3.83302 13.223 5.44702 14.003 8.00702 14.003C10.567 14.003 12.177 13.218 13.067 12.583C13.77 12.075 14.011 11.253 14.011 10.503V6.58302L15.011 6.11002V10.5C15.011 10.6326 15.0637 10.7598 15.1575 10.8536C15.2512 10.9473 15.3784 11 15.511 11C15.6436 11 15.7708 10.9473 15.8646 10.8536C15.9583 10.7598 16.011 10.6326 16.011 10.5V5.00002C16.0111 4.81064 15.9573 4.62514 15.8561 4.46511C15.7548 4.30507 15.6102 4.17708 15.439 4.09602L9.71902 1.39602C9.18441 1.14321 8.60039 1.01208 8.00902 1.01208C7.41764 1.01208 6.83363 1.14321 6.29902 1.39602L0.579018 4.09602L0.573018 4.10002ZM3.00302 10.5V7.05002L6.29302 8.61002C6.82763 8.86284 7.41165 8.99396 8.00302 8.99396C8.59439 8.99396 9.17841 8.86284 9.71302 8.61002L13.003 7.05002V10.5C13.003 11.056 12.823 11.51 12.473 11.76C11.749 12.283 10.343 13 8.00302 13C5.66302 13 4.25302 12.288 3.53302 11.76C3.18402 11.508 3.00302 11.051 3.00302 10.5ZM6.72302 2.30002C7.12311 2.1105 7.5603 2.01219 8.00302 2.01219C8.44573 2.01219 8.88292 2.1105 9.28302 2.30002L15.003 5.00002L9.28302 7.70002C8.88292 7.88955 8.44573 7.98786 8.00302 7.98786C7.5603 7.98786 7.12311 7.88955 6.72302 7.70002L1.00302 5.00002L6.72302 2.30002Z" fill="black"/>
</g>
<defs>
<clipPath id="clip0_54_138">
<rect width="16" height="16" fill="white"/>
</clipPath>
</defs>
</svg>
