<svg width="16" height="16" viewBox="0 0 16 16" fill="none" xmlns="http://www.w3.org/2000/svg">
<path d="M7.96297 13.2963C10.9096 13.2963 13.2963 10.9097 13.2963 7.963C13.2963 5.01634 10.9096 2.62967 7.96297 2.62967C5.01631 2.62967 2.62964 5.01634 2.62964 7.963C2.62964 10.9097 5.01631 13.2963 7.96297 13.2963Z" stroke="black" stroke-width="2" stroke-miterlimit="2" stroke-linejoin="round"/>
<path d="M7.96299 10.6297C9.43633 10.6297 10.6297 9.43633 10.6297 7.96299C10.6297 6.48966 9.43633 5.29633 7.96299 5.29633C6.48966 5.29633 5.29633 6.48966 5.29633 7.96299C5.29633 9.43633 6.48966 10.6297 7.96299 10.6297Z" stroke="black" stroke-width="2" stroke-miterlimit="2" stroke-linejoin="round"/>
<path d="M7.96299 8.62966C8.32966 8.62966 8.62966 8.32966 8.62966 7.96299C8.62966 7.59633 8.32966 7.29633 7.96299 7.29633C7.59633 7.29633 7.29633 7.59633 7.29633 7.96299C7.29633 8.32966 7.59633 8.62966 7.96299 8.62966Z" fill="black"/>
<path d="M7.96299 2.62966V1.29633M12.6297 14.6297L11.2963 12.2963M4.62966 12.2963L3.29633 14.6297" stroke="black" stroke-width="2" stroke-miterlimit="2" stroke-linecap="round" stroke-linejoin="round"/>
</svg>
