<svg width="16" height="16" viewBox="0 0 16 16" fill="none" xmlns="http://www.w3.org/2000/svg">
<g clip-path="url(#clip0_54_124)">
<path d="M8 0.5C3.85781 0.5 0.5 3.85781 0.5 8C0.5 12.1422 3.85781 15.5 8 15.5C12.1422 15.5 15.5 12.1422 15.5 8C15.5 3.85781 12.1422 0.5 8 0.5ZM8 2.375C11.1066 2.375 13.625 4.89344 13.625 8C13.625 11.1066 11.1066 13.625 8 13.625C4.89344 13.625 2.375 11.1066 2.375 8C2.375 4.89344 4.89344 2.375 8 2.375ZM7.53125 3.3125C7.40693 3.3125 7.2877 3.36189 7.19979 3.44979C7.11189 3.5377 7.0625 3.65693 7.0625 3.78125V4.71875C7.0625 4.84307 7.11189 4.9623 7.19979 5.05021C7.2877 5.13811 7.40693 5.1875 7.53125 5.1875H8.46875C8.59307 5.1875 8.7123 5.13811 8.80021 5.05021C8.88811 4.9623 8.9375 4.84307 8.9375 4.71875V3.78125C8.9375 3.65693 8.88811 3.5377 8.80021 3.44979C8.7123 3.36189 8.59307 3.3125 8.46875 3.3125H7.53125ZM8.05469 6.12594C7.80397 6.11862 7.55434 6.16168 7.32057 6.25257C7.0868 6.34346 6.87363 6.48033 6.6937 6.65507C6.51377 6.82981 6.37073 7.03888 6.27305 7.2699C6.17536 7.50091 6.12502 7.74918 6.125 8C6.125 8.49728 6.32254 8.97419 6.67417 9.32583C7.02581 9.67746 7.50272 9.875 8 9.875C8.49728 9.875 8.97419 9.67746 9.32583 9.32583C9.67746 8.97419 9.875 8.49728 9.875 8C9.87496 7.51221 9.68484 7.04364 9.34497 6.69374C9.00511 6.34384 8.54227 6.14016 8.05469 6.12594ZM3.78125 7.0625C3.65693 7.0625 3.5377 7.11189 3.44979 7.19979C3.36189 7.2877 3.3125 7.40693 3.3125 7.53125V8.46875C3.3125 8.59307 3.36189 8.7123 3.44979 8.80021C3.5377 8.88811 3.65693 8.9375 3.78125 8.9375H4.71875C4.84307 8.9375 4.9623 8.88811 5.05021 8.80021C5.13811 8.7123 5.1875 8.59307 5.1875 8.46875V7.53125C5.1875 7.40693 5.13811 7.2877 5.05021 7.19979C4.9623 7.11189 4.84307 7.0625 4.71875 7.0625H3.78125ZM11.2812 7.0625C11.1569 7.0625 11.0377 7.11189 10.9498 7.19979C10.8619 7.2877 10.8125 7.40693 10.8125 7.53125V8.46875C10.8125 8.59307 10.8619 8.7123 10.9498 8.80021C11.0377 8.88811 11.1569 8.9375 11.2812 8.9375H12.2188C12.3431 8.9375 12.4623 8.88811 12.5502 8.80021C12.6381 8.7123 12.6875 8.59307 12.6875 8.46875V7.53125C12.6875 7.40693 12.6381 7.2877 12.5502 7.19979C12.4623 7.11189 12.3431 7.0625 12.2188 7.0625H11.2812ZM7.53125 10.8125C7.40693 10.8125 7.2877 10.8619 7.19979 10.9498C7.11189 11.0377 7.0625 11.1569 7.0625 11.2812V12.2188C7.0625 12.3431 7.11189 12.4623 7.19979 12.5502C7.2877 12.6381 7.40693 12.6875 7.53125 12.6875H8.46875C8.59307 12.6875 8.7123 12.6381 8.80021 12.5502C8.88811 12.4623 8.9375 12.3431 8.9375 12.2188V11.2812C8.9375 11.1569 8.88811 11.0377 8.80021 10.9498C8.7123 10.8619 8.59307 10.8125 8.46875 10.8125H7.53125Z" fill="black"/>
</g>
<defs>
<clipPath id="clip0_54_124">
<rect width="16" height="16" fill="white"/>
</clipPath>
</defs>
</svg>
