<svg width="16" height="16" viewBox="0 0 16 16" fill="none" xmlns="http://www.w3.org/2000/svg">
<path d="M2.66665 14C2.29998 14 1.9862 13.8696 1.72531 13.6087C1.46442 13.3478 1.33376 13.0338 1.33331 12.6667V5.33334C1.33331 4.96668 1.46398 4.6529 1.72531 4.39201C1.98665 4.13112 2.30042 4.00045 2.66665 4.00001H5.33331V2.66668C5.33331 2.30001 5.46398 1.98623 5.72531 1.72534C5.98665 1.46445 6.30042 1.33379 6.66665 1.33334H9.33331C9.69998 1.33334 10.014 1.46401 10.2753 1.72534C10.5366 1.98668 10.6671 2.30045 10.6666 2.66668V4.00001H13.3333C13.7 4.00001 14.014 4.13068 14.2753 4.39201C14.5366 4.65334 14.6671 4.96712 14.6666 5.33334V12.6667C14.6666 13.0333 14.5362 13.3473 14.2753 13.6087C14.0144 13.87 13.7004 14.0005 13.3333 14H2.66665ZM6.66665 4.00001H9.33331V2.66668H6.66665V4.00001ZM13.3333 10H9.99998V11.3333H5.99998V10H2.66665V12.6667H13.3333V10ZM7.33331 10H8.66665V8.66668H7.33331V10ZM2.66665 8.66668H5.99998V7.33334H9.99998V8.66668H13.3333V5.33334H2.66665V8.66668Z" fill="black"/>
</svg>
