<svg width="32" height="32" viewBox="0 0 32 32" fill="none" xmlns="http://www.w3.org/2000/svg">
<path d="M15.926 26.5926C21.8193 26.5926 26.5927 21.8193 26.5927 15.926C26.5927 10.0326 21.8193 5.25931 15.926 5.25931C10.0327 5.25931 5.25934 10.0326 5.25934 15.926C5.25934 21.8193 10.0327 26.5926 15.926 26.5926Z" stroke="black" stroke-width="2" stroke-miterlimit="2" stroke-linejoin="round"/>
<path d="M15.926 21.2593C18.8727 21.2593 21.2593 18.8727 21.2593 15.926C21.2593 12.9793 18.8727 10.5927 15.926 10.5927C12.9793 10.5927 10.5927 12.9793 10.5927 15.926C10.5927 18.8727 12.9793 21.2593 15.926 21.2593Z" stroke="black" stroke-width="2" stroke-miterlimit="2" stroke-linejoin="round"/>
<path d="M15.926 17.2593C16.6593 17.2593 17.2593 16.6593 17.2593 15.926C17.2593 15.1927 16.6593 14.5927 15.926 14.5927C15.1927 14.5927 14.5927 15.1927 14.5927 15.926C14.5927 16.6593 15.1927 17.2593 15.926 17.2593Z" fill="black"/>
<path d="M15.926 5.25932V2.59265M25.2593 29.2593L22.5927 24.5927M9.25932 24.5927L6.59265 29.2593" stroke="black" stroke-width="2" stroke-miterlimit="2" stroke-linecap="round" stroke-linejoin="round"/>
</svg>
